<svg width="14" height="14" viewBox="0 0 14 14" fill="none" xmlns="http://www.w3.org/2000/svg">
<g clip-path="url(#clip0_2_178)">
<path d="M7.92907 10.0797L13.968 3.64591C13.9838 3.63388 13.9946 3.61651 13.9985 3.59707C14.0023 3.57763 13.9989 3.55745 13.9889 3.54033C13.9789 3.52321 13.963 3.51033 13.9442 3.50411C13.9254 3.49789 13.905 3.49875 13.8867 3.50655H0.113253C0.0950305 3.49875 0.0745892 3.49789 0.0557726 3.50411C0.0369559 3.51033 0.0210601 3.52321 0.011074 3.54033C0.001088 3.55745 -0.0023004 3.57763 0.00154573 3.59707C0.00539187 3.61651 0.0162077 3.63388 0.0319596 3.64591L6.07093 10.0797C6.19034 10.2063 6.33434 10.3071 6.4941 10.376C6.65386 10.4449 6.82602 10.4804 7 10.4804C7.17398 10.4804 7.34613 10.4449 7.5059 10.376C7.66566 10.3071 7.80966 10.2063 7.92907 10.0797V10.0797Z" fill="white"/>
</g>
<defs>
<clipPath id="clip0_2_178">
<rect width="14" height="14" fill="white"/>
</clipPath>
</defs>
</svg>
