<svg width="25" height="24" viewBox="0 0 25 24" fill="none" xmlns="http://www.w3.org/2000/svg">
<g clip-path="url(#clip0_5_1200)">
<path d="M22.7691 0H2.2309C1.2749 0 0.5 0.774902 0.5 1.7309V22.2691C0.5 23.2251 1.2749 24 2.2309 24H13.3203V14.7188H10.2031V11.0859H13.3203V8.41241C13.3203 5.31207 15.2131 3.62457 17.9787 3.62457C19.3033 3.62457 20.4417 3.72327 20.7734 3.7674V7.00781H18.8664C17.3616 7.00781 17.0703 7.72284 17.0703 8.77222V11.0859H20.668L20.1992 14.7188H17.0703V24H22.7691C23.7251 24 24.5 23.2251 24.5 22.2691V1.7309C24.5 0.774902 23.7251 0 22.7691 0V0Z" fill="#808080"/>
</g>
<defs>
<clipPath id="clip0_5_1200">
<rect width="24" height="24" fill="white" transform="translate(0.5)"/>
</clipPath>
</defs>
</svg>
