<svg width="20" height="20" viewBox="0 0 20 20" fill="none" xmlns="http://www.w3.org/2000/svg">
<g clip-path="url(#clip0_2_183)">
<mask id="mask0_2_183" style="mask-type:alpha" maskUnits="userSpaceOnUse" x="0" y="0" width="20" height="20">
<path d="M6.10352e-05 0H19.2954V20H6.10352e-05V0Z" fill="white"/>
</mask>
<g mask="url(#mask0_2_183)">
<path fill-rule="evenodd" clip-rule="evenodd" d="M17.9384 10.0388C17.9384 10.1247 17.866 10.1971 17.7801 10.1971H17.5937H16.2366H3.059H1.70188H1.51551C1.42956 10.1971 1.35718 10.1247 1.35718 10.0388V7.52901C1.35718 7.44215 1.42956 7.36977 1.51551 7.36977H8.96879H14.5312H17.7801C17.866 7.36977 17.9384 7.44215 17.9384 7.52901V10.0388ZM16.2366 18.5732C16.2366 18.6094 16.2031 18.6429 16.1669 18.6429H10.3259V11.5542H16.2366V18.5732ZM8.96879 18.6429H3.12867C3.09157 18.6429 3.059 18.6094 3.059 18.5732V11.5542H8.96879V18.6429ZM6.67888 1.35685C7.91114 1.35685 8.91269 2.3593 8.91269 3.59066V5.82447H6.67888C5.44752 5.82447 4.44507 4.82202 4.44507 3.59066C4.44507 2.3593 5.44752 1.35685 6.67888 1.35685ZM10.3259 4.9342C10.3259 3.85122 11.2071 2.97091 12.2901 2.97091C13.374 2.97091 14.2543 3.85122 14.2543 4.9342C14.2543 5.335 14.1294 5.70324 13.9214 6.01266H10.3259V4.9342ZM17.7801 6.01266H15.4187C15.5381 5.67428 15.6114 5.3142 15.6114 4.9342C15.6114 3.103 14.1213 1.61289 12.2901 1.61289C11.436 1.61289 10.6643 1.94674 10.0753 2.47873C9.60392 1.04471 8.26852 -0.000270844 6.67888 -0.000270844C4.6993 -0.000270844 3.08795 1.61108 3.08795 3.59066C3.08795 4.53069 3.46071 5.37662 4.05603 6.01266H1.51551C0.679524 6.01266 6.10352e-05 6.69303 6.10352e-05 7.52901V10.0388C6.10352e-05 10.8748 0.679524 11.5542 1.51551 11.5542H1.70188V18.5732C1.70188 19.3603 2.34154 20 3.12867 20H16.1669C16.9541 20 17.5937 19.3603 17.5937 18.5732V11.5542H17.7801C18.6161 11.5542 19.2955 10.8748 19.2955 10.0388V7.52901C19.2955 6.69303 18.6161 6.01266 17.7801 6.01266Z" fill="white"/>
</g>
</g>
<defs>
<clipPath id="clip0_2_183">
<rect width="20" height="20" fill="white"/>
</clipPath>
</defs>
</svg>
