<svg width="25" height="24" viewBox="0 0 25 24" fill="none" xmlns="http://www.w3.org/2000/svg">
<g clip-path="url(#clip0_5_1204)">
<path d="M23.5949 0.906398C22.9907 0.302041 22.2667 0 21.4232 0H3.57926C2.73547 0 2.01164 0.302151 1.40729 0.906398C0.803041 1.51048 0.500999 2.23442 0.500999 3.07804V20.9218C0.500999 21.7653 0.802986 22.4894 1.40729 23.0935C2.01164 23.6977 2.73563 24 3.57926 24H21.423C22.2663 24 22.9906 23.6977 23.5948 23.0935C24.1991 22.4894 24.5009 21.7653 24.5009 20.9218V3.07804C24.5008 2.23425 24.1991 1.5107 23.5949 0.906398ZM9.11845 8.64832C10.0611 7.737 11.1939 7.28112 12.5169 7.28112C13.85 7.28112 14.988 7.737 15.9308 8.64832C16.8737 9.55981 17.3448 10.6615 17.3448 11.9531C17.3448 13.2446 16.8737 14.3463 15.9308 15.2575C14.988 16.1692 13.8504 16.625 12.5169 16.625C11.194 16.625 10.0612 16.1688 9.11845 15.2575C8.17561 14.3462 7.70424 13.2446 7.70424 11.9531C7.70424 10.6615 8.17561 9.55986 9.11845 8.64832ZM21.7826 20.2814C21.7826 20.5521 21.6885 20.7785 21.5012 20.9609C21.3133 21.1432 21.0897 21.2343 20.8291 21.2343H4.12621C3.85541 21.2343 3.62868 21.1432 3.44655 20.9609C3.26414 20.7789 3.17302 20.5521 3.17302 20.2814V10.1561H5.37607C5.16784 10.8124 5.06369 11.4948 5.06369 12.203C5.06369 14.2034 5.79277 15.9089 7.2511 17.3206C8.70958 18.7318 10.4648 19.4377 12.5168 19.4377C13.871 19.4377 15.1209 19.1147 16.2671 18.4689C17.413 17.8227 18.3186 16.9453 18.9858 15.8359C19.6525 14.7264 19.9859 13.5154 19.9859 12.203C19.9859 11.4949 19.8813 10.8126 19.6731 10.1561H21.7827V20.2815H21.7826V20.2814ZM21.7826 6.32793C21.7826 6.63002 21.6784 6.88527 21.4697 7.09357C21.2615 7.30202 21.0064 7.40611 20.7042 7.40611H17.9855C17.6836 7.40611 17.4281 7.30197 17.2199 7.09357C17.0116 6.88527 16.9075 6.63002 16.9075 6.32793V3.75004C16.9075 3.45834 17.0116 3.20578 17.2199 2.99217C17.4282 2.77868 17.6836 2.6718 17.9855 2.6718H20.7042C21.0064 2.6718 21.2616 2.77863 21.4697 2.99217C21.6784 3.20578 21.7826 3.45834 21.7826 3.75004V6.32793Z" fill="#808080"/>
</g>
<defs>
<clipPath id="clip0_5_1204">
<rect width="24" height="24" fill="white" transform="translate(0.5)"/>
</clipPath>
</defs>
</svg>
