<svg width="20" height="20" viewBox="0 0 20 20" fill="none" xmlns="http://www.w3.org/2000/svg">
<g clip-path="url(#clip0_2_191)">
<path d="M9.99999 20C11.1416 20 12.08 19.1301 12.1887 18.017H7.81128C7.92003 19.1301 8.85835 20 9.99999 20Z" fill="white"/>
<path d="M17.6529 13.5882C16.982 13.5882 16.4382 13.0444 16.4382 12.3735V8.35574C16.4382 5.50652 14.5872 3.08996 12.0222 2.24203C12.0293 2.17324 12.0329 2.10352 12.0329 2.03289C12.0329 0.911953 11.121 0 10 0C8.87911 0 7.96715 0.911953 7.96715 2.03289C7.96715 2.10352 7.97082 2.17324 7.97785 2.24203C5.41289 3.08996 3.56192 5.50652 3.56192 8.35574V12.3735C3.56192 13.0444 3.01805 13.5882 2.34719 13.5882C1.44781 13.5882 0.71875 14.3173 0.71875 15.2167C0.71875 16.1161 1.44785 16.8452 2.34719 16.8452H17.6529C18.5523 16.8452 19.2814 16.1161 19.2814 15.2167C19.2814 14.3173 18.5523 13.5882 17.6529 13.5882ZM10 1.17188C10.4553 1.17188 10.8289 1.52703 10.8589 1.97477C10.5779 1.9373 10.2913 1.91762 10 1.91762C9.70879 1.91762 9.42219 1.9373 9.14122 1.97477C9.17122 1.52703 9.54481 1.17188 10 1.17188Z" fill="white"/>
</g>
<defs>
<clipPath id="clip0_2_191">
<rect width="20" height="20" fill="white"/>
</clipPath>
</defs>
</svg>
