<svg width="25" height="24" viewBox="0 0 25 24" fill="none" xmlns="http://www.w3.org/2000/svg">
<g clip-path="url(#clip0_5_1214)">
<path d="M23.48 5.34C22.829 4.182 22.1225 3.969 20.684 3.888C19.247 3.7905 15.6335 3.75 12.503 3.75C9.3665 3.75 5.7515 3.7905 4.316 3.8865C2.8805 3.969 2.1725 4.1805 1.5155 5.34C0.845 6.4965 0.5 8.4885 0.5 11.9955C0.5 11.9985 0.5 12 0.5 12C0.5 12.003 0.5 12.0045 0.5 12.0045V12.0075C0.5 15.4995 0.845 17.5065 1.5155 18.651C2.1725 19.809 2.879 20.019 4.3145 20.1165C5.7515 20.2005 9.3665 20.25 12.503 20.25C15.6335 20.25 19.247 20.2005 20.6855 20.118C22.124 20.0205 22.8305 19.8105 23.4815 18.6525C24.158 17.508 24.5 15.501 24.5 12.009C24.5 12.009 24.5 12.0045 24.5 12.0015C24.5 12.0015 24.5 11.9985 24.5 11.997C24.5 8.4885 24.158 6.4965 23.48 5.34ZM9.5 16.5V7.5L17 12L9.5 16.5Z" fill="#808080"/>
</g>
<defs>
<clipPath id="clip0_5_1214">
<rect width="24" height="24" fill="white" transform="translate(0.5)"/>
</clipPath>
</defs>
</svg>
